<svg xmlns="http://www.w3.org/2000/svg" version="1.1" xmlns:xlink="http://www.w3.org/1999/xlink" xmlns:svgjs="http://svgjs.dev/svgjs" width="1500" height="1500" viewBox="0 0 1500 1500"><rect width="1500" height="1500" fill="#ffffff"></rect><g transform="matrix(0.6666666666666666,0,0,0.6666666666666666,249.84570170926713,120.51012145748984)"><svg viewBox="0 0 196 247" data-background-color="#ffffff" preserveAspectRatio="xMidYMid meet" height="1890" width="1500" xmlns="http://www.w3.org/2000/svg" xmlns:xlink="http://www.w3.org/1999/xlink"><g id="tight-bounds" transform="matrix(1,0,0,1,0.030242464983643913,-0.09999999999999432)"><svg viewBox="0 0 195.93951507003274 247.2" height="247.2" width="195.93951507003274"><g><svg viewBox="0 0 395.52 498.9934978917046" height="247.2" width="195.93951507003274"><g transform="matrix(1,0,0,1,0,338.9106537713765)"><svg viewBox="0 0 395.52 160.08284412032813" height="160.08284412032813" width="395.52"><g id="textblocktransform"><svg viewBox="0 0 395.52 160.08284412032813" height="160.08284412032813" width="395.52" id="textblock"><g><svg viewBox="0 0 395.52 160.08284412032813" height="160.08284412032813" width="395.52"><g transform="matrix(1,0,0,1,0,0)"><svg width="395.52" viewBox="4.35 -35.4 109.74000000000001 44.4" height="160.08284412032813" data-palette-color="#ed2647"><path d="M25.95-11.5L32.1 0 27.6 0 21.6-11.3Q20.5-13.35 19.03-14.13 17.55-14.9 15-14.9L15-14.9 8.4-14.9 8.4 0 4.35 0 4.35-35.25 18.85-35.25Q24.6-35.25 27.63-32.7 30.65-30.15 30.65-25.2L30.65-25.2Q30.65-21.1 28.33-18.57 26-16.05 21.7-15.4L21.7-15.4Q23.05-15 24.08-14.05 25.1-13.1 25.95-11.5L25.95-11.5ZM8.4-18.3L18.5-18.3Q22.6-18.3 24.63-20 26.65-21.7 26.65-25.15L26.65-25.15Q26.65-28.55 24.65-30.2 22.65-31.85 18.5-31.85L18.5-31.85 8.4-31.85 8.4-18.3ZM47.9-24.95Q52.55-24.95 54.82-22.58 57.1-20.2 57.1-15.35L57.1-15.35 57.1 0 53.15 0 53.15-4.15Q52.2-2 50.25-0.83 48.3 0.35 45.75 0.35L45.75 0.35Q43.4 0.35 41.42-0.6 39.45-1.55 38.3-3.25 37.15-4.95 37.15-7L37.15-7Q37.15-9.75 38.55-11.28 39.95-12.8 43.15-13.48 46.35-14.15 52.05-14.15L52.05-14.15 53.15-14.15 53.15-15.8Q53.15-18.85 51.9-20.23 50.65-21.6 47.85-21.6L47.85-21.6Q43.65-21.6 39.5-19L39.5-19 38.15-21.95Q40.05-23.3 42.72-24.13 45.4-24.95 47.9-24.95L47.9-24.95ZM46.3-2.85Q49.3-2.85 51.22-4.88 53.15-6.9 53.15-10.1L53.15-10.1 53.15-11.55 52.25-11.55Q47.85-11.55 45.55-11.18 43.25-10.8 42.27-9.93 41.3-9.05 41.3-7.35L41.3-7.35Q41.3-5.4 42.72-4.13 44.15-2.85 46.3-2.85L46.3-2.85ZM69.9-25.7L69.9-24.35 76.8-24.35 76.8-21.15 69.9-21.15 69.9 0 65.85 0 65.85-21.15 61.1-21.15 61.1-24.35 65.85-24.35 65.85-25.15Q65.85-30 68.27-32.5 70.7-35 75.75-35.3L75.75-35.3 77.75-35.4 78.05-32.25 75.75-32.1Q72.7-31.9 71.3-30.38 69.9-28.85 69.9-25.7L69.9-25.7ZM84.94 0L80.89 0 80.89-24.35 84.94-24.35 84.94 0ZM80.49-30.35L80.49-34.9 85.39-34.9 85.39-30.35 80.49-30.35ZM110.04-24.35L114.09-24.35 114.09 9 110.04 9 110.04-4.45Q108.94-2.15 106.82-0.9 104.69 0.35 101.84 0.35L101.84 0.35Q98.59 0.35 96.17-1.2 93.74-2.75 92.39-5.58 91.04-8.4 91.04-12.2L91.04-12.2Q91.04-16 92.39-18.88 93.74-21.75 96.19-23.35 98.64-24.95 101.84-24.95L101.84-24.95Q104.69-24.95 106.82-23.7 108.94-22.45 110.04-20.15L110.04-20.15 110.04-24.35ZM102.64-3Q106.19-3 108.12-5.43 110.04-7.85 110.04-12.3L110.04-12.3Q110.04-16.75 108.12-19.15 106.19-21.55 102.64-21.55L102.64-21.55Q99.09-21.55 97.12-19.07 95.14-16.6 95.14-12.2L95.14-12.2Q95.14-7.8 97.12-5.4 99.09-3 102.64-3L102.64-3Z" opacity="1" transform="matrix(1,0,0,1,0,0)" fill="#000000" class="wordmark-text-0" data-fill-palette-color="primary" id="text-0"></path></svg></g></svg></g></svg></g></svg></g><g transform="matrix(1,0,0,1,75.54432,0)"><svg viewBox="0 0 244.43135999999998 244.43135999999998" height="244.43135999999998" width="244.43135999999998"><g><svg viewBox="0 0 244.43135999999998 244.43135999999998" height="244.43135999999998" width="244.43135999999998"><g transform="matrix(1,0,0,1,71.9667526722529,64.60265593644993)"><svg viewBox="0 0 100.4978546554942 115.22604812710013" height="115.22604812710013" width="100.4978546554942"><g><svg xmlns="http://www.w3.org/2000/svg" xmlns:xlink="http://www.w3.org/1999/xlink" version="1.1" x="0" y="0" viewBox="6.391000000000002 0 87.218 100" enable-background="new 0 0 100 100" xml:space="preserve" height="115.22604812710013" width="100.4978546554942" class="icon-cg-0" data-fill-palette-color="accent" id="cg-0"><path fill="#000000" d="M77.806 12.728C67.152 12.728 56.381 8.48 50 0c-6.38 8.479-17.154 12.727-27.807 12.727-5.508 0-10.983-1.135-15.802-3.409 0.54 14.316 1.604 28.825 3.999 42.962 1.222 7.749 2.422 16.888 6.666 23.668 3.729 6.528 9.515 11.869 15.722 16.006 4.715 3.137 9.846 5.717 15.187 7.612 0.853 0.303 1.502 0.434 2.1 0.434 1.036 0 1.917-0.394 3.434-0.974 12.28-4.715 25.46-13.388 30.882-25.855 4.878-11.093 5.954-24.273 7.206-36.19 0.968-9.189 1.671-18.426 2.022-27.663C88.79 11.592 83.312 12.728 77.806 12.728zM81.641 35.937l-0.267 2.568c-0.396 3.824-0.797 7.694-1.326 11.496H50v39.658c-0.001 0-0.002 0.001-0.003 0.001-4.081-1.561-8.003-3.585-11.673-6.026-5.664-3.775-10.016-8.147-12.584-12.645l-0.1-0.175-0.107-0.171c-2.877-4.597-4.016-11.91-5.021-18.363l-0.244-1.557-0.009-0.056-0.01-0.056c-0.034-0.201-0.065-0.408-0.099-0.609H50V13.899l0 0c7.62 5.639 17.418 8.829 27.806 8.829 1.693 0 3.378-0.086 5.046-0.257C82.525 26.877 82.121 31.375 81.641 35.937z" data-fill-palette-color="accent"></path></svg></g></svg></g><g id="text-0"><path d="M41.897 71.9l16.991-1.151-2.41 5.354-16.67 1.089c-2.022 0.135-3.605 0.65-4.748 1.544-1.144 0.894-2.171 2.353-3.082 4.375v0l-3.541 7.863 17.745 7.991-2.17 4.819-41.966-18.899 7.775-17.264c2.056-4.565 4.635-7.591 7.738-9.078 3.105-1.492 6.623-1.353 10.554 0.417v0c3.255 1.466 5.466 3.573 6.633 6.321 1.175 2.745 1.253 5.943 0.233 9.594v0c0.798-0.933 1.758-1.638 2.88-2.113 1.119-0.469 2.465-0.756 4.038-0.862zM24.397 89.154l5.418-12.028c1.466-3.255 1.884-5.99 1.254-8.206-0.623-2.213-2.306-3.936-5.047-5.171v0c-2.699-1.216-5.062-1.324-7.087-0.326-2.026 0.998-3.779 3.143-5.262 6.433v0l-5.417 12.029z" fill="#000000" data-fill-palette-color="accent"></path><path d="M75.357 21.691c3.607-1.834 6.763-2.276 9.467-1.325 2.708 0.941 5.017 3.292 6.929 7.053v0l9.086 17.87-4.605 2.341-2.454-4.826c0.108 2.04-0.36 3.902-1.406 5.585-1.049 1.678-2.562 3.019-4.54 4.024v0c-1.824 0.927-3.691 1.412-5.601 1.455-1.904 0.039-3.64-0.371-5.207-1.231-1.564-0.869-2.749-2.098-3.556-3.686v0c-1.087-2.137-1.387-4.072-0.901-5.805 0.486-1.733 1.838-3.494 4.056-5.283 2.212-1.786 5.532-3.805 9.96-6.056v0l1.275-0.648-0.977-1.921c-1.204-2.367-2.56-3.836-4.068-4.407-1.511-0.576-3.353-0.312-5.526 0.792v0c-3.259 1.657-5.987 4.314-8.183 7.972v0l-3.314-2.639c0.936-1.798 2.281-3.544 4.034-5.238 1.751-1.7 3.594-3.042 5.531-4.027zM86.576 48.361c2.326-1.183 3.837-2.939 4.532-5.268 0.695-2.33 0.411-4.737-0.853-7.223v0l-0.855-1.682-1.045 0.531c-3.412 1.735-5.939 3.202-7.581 4.4-1.636 1.196-2.659 2.325-3.069 3.388-0.41 1.063-0.28 2.256 0.392 3.579v0c0.768 1.511 1.957 2.482 3.565 2.912 1.605 0.425 3.243 0.212 4.914-0.637z" fill="#000000" data-fill-palette-color="accent"></path><path d="M139.407 11.463l-0.239 1.742 8.927 1.223-0.568 4.143-8.927-1.223-3.749 27.361-5.246-0.719 3.749-27.361-6.141-0.841 0.568-4.144 6.141 0.842 0.142-1.034c0.573-4.18 2.054-7.205 4.442-9.077 2.389-1.872 5.779-2.637 10.171-2.296v0l2.606 0.227-0.174 4.127-3-0.211c-2.655-0.19-4.675 0.289-6.062 1.436-1.388 1.153-2.268 3.088-2.64 5.804z" fill="#000000" data-fill-palette-color="accent"></path><path d="M171.808 59.015l-4.509-2.757 16.587-27.13 4.509 2.757zM187.52 22.174l3.099-5.068 5.458 3.337-3.098 5.069z" fill="#000000" data-fill-palette-color="accent"></path><path d="M229.428 85.613l2.407 4.705-38.772 19.834-2.407-4.705 15.636-7.999c-2.218 0.056-4.234-0.49-6.048-1.637-1.808-1.15-3.278-2.831-4.41-5.042v0c-1.288-2.518-1.812-5.024-1.571-7.521 0.235-2.493 1.182-4.822 2.842-6.988 1.651-2.168 3.95-4.007 6.898-5.515v0c2.942-1.505 5.796-2.303 8.561-2.393 2.763-0.097 5.249 0.488 7.458 1.753 2.215 1.262 3.958 3.134 5.228 5.616v0c1.131 2.211 1.631 4.388 1.499 6.531-0.125 2.14-0.86 4.092-2.203 5.858v0zM200.201 89.707c1.409 2.753 3.435 4.395 6.078 4.924 2.644 0.53 5.69-0.088 9.14-1.852v0c3.449-1.764 5.721-3.868 6.815-6.309 1.1-2.445 0.946-5.044-0.463-7.798v0c-1.409-2.753-3.464-4.402-6.167-4.946-2.7-0.553-5.755 0.043-9.163 1.786v0c-3.414 1.746-5.657 3.861-6.73 6.344-1.082 2.48-0.919 5.097 0.49 7.851z" fill="#000000" data-fill-palette-color="accent"></path><path d="M40.372 185.803l-10.427 13.555-2.427-5.378 10.273-13.268c1.235-1.611 1.894-3.144 1.979-4.599 0.093-1.452-0.319-3.195-1.237-5.229v0l-3.56-7.887-17.81 8.039-2.187-4.845 42.132-19.014 7.821 17.331c2.068 4.582 2.629 8.539 1.685 11.871-0.941 3.324-3.386 5.877-7.334 7.658v0c-3.266 1.474-6.322 1.738-9.168 0.792-2.846-0.946-5.303-3.016-7.369-6.21v0c0.168 1.225 0.058 2.415-0.329 3.57-0.393 1.158-1.073 2.363-2.042 3.614zM39.039 161.163l5.447 12.07c1.474 3.266 3.252 5.402 5.334 6.409 2.08 1.001 4.496 0.881 7.248-0.361v0c2.71-1.223 4.361-2.927 4.952-5.112 0.597-2.188 0.149-4.935-1.344-8.243v0l-5.448-12.07z" fill="#000000" data-fill-palette-color="accent"></path><path d="M90.596 205.402c3.626 1.84 5.856 4.134 6.69 6.882 0.831 2.753 0.287 6.02-1.631 9.799v0l-9.107 17.948-4.616-2.342 2.464-4.855c-1.595 1.3-3.384 2.022-5.367 2.168-1.982 0.145-3.969-0.287-5.958-1.297v0c-1.831-0.929-3.33-2.154-4.497-3.675-1.164-1.526-1.856-3.177-2.076-4.952-0.226-1.778 0.067-3.468 0.878-5.069v0c1.088-2.144 2.479-3.532 4.175-4.164 1.692-0.642 3.921-0.591 6.685 0.15 2.759 0.739 6.362 2.237 10.809 4.494v0l1.285 0.652 0.98-1.931c1.205-2.374 1.593-4.346 1.163-5.915-0.432-1.563-1.741-2.9-3.925-4.009v0c-3.272-1.66-7.04-2.299-11.305-1.915v0l0.172-4.247c2.019-0.305 4.234-0.25 6.645 0.164 2.408 0.42 4.587 1.125 6.536 2.114zM75.614 230.294c2.339 1.187 4.66 1.369 6.963 0.548 2.3-0.816 4.083-2.47 5.348-4.962v0l0.863-1.7-1.054-0.535c-3.431-1.741-6.117-2.918-8.056-3.531-1.942-0.622-3.468-0.783-4.578-0.485-1.101 0.296-1.988 1.108-2.662 2.436v0c-0.77 1.518-0.852 3.054-0.245 4.61 0.604 1.562 1.744 2.768 3.421 3.619z" fill="#000000" data-fill-palette-color="accent"></path><path d="M134.65 210.325l0.241 1.752 8.965-1.234 0.572 4.153-8.966 1.234 3.782 27.477-5.265 0.724-3.782-27.476-6.17 0.849-0.572-4.153 6.171-0.85-0.144-1.043c-0.578-4.199 0.034-7.525 1.835-9.979 1.801-2.454 4.872-4.113 9.213-4.978v0l2.58-0.486 0.957 4.04-2.964 0.608c-2.621 0.534-4.443 1.547-5.468 3.039-1.032 1.486-1.361 3.593-0.985 6.323z" fill="#000000" data-fill-palette-color="accent"></path><path d="M188.413 225.046l-4.536 2.77-16.641-27.248 4.536-2.77zM162.686 194.128l-3.112-5.095 5.485-3.35 3.112 5.095z" fill="#000000" data-fill-palette-color="accent"></path><path d="M201.053 156.762l2.421-4.721 38.911 19.956-2.421 4.72-15.69-8.047c1.344 1.776 2.08 3.738 2.206 5.888 0.123 2.155-0.384 4.34-1.52 6.555v0c-1.297 2.528-3.029 4.427-5.198 5.696-2.175 1.266-4.631 1.86-7.367 1.782-2.736-0.078-5.58-0.875-8.533-2.389v0c-2.958-1.517-5.288-3.374-6.989-5.572-1.695-2.194-2.677-4.562-2.944-7.103-0.264-2.547 0.241-5.064 1.516-7.551v0c1.136-2.216 2.615-3.902 4.437-5.059 1.819-1.151 3.841-1.699 6.068-1.644v0zM221.534 178.172c1.414-2.758 1.564-5.372 0.449-7.841-1.118-2.464-3.41-4.584-6.875-6.362v0c-3.459-1.774-6.507-2.392-9.142-1.852-2.639 0.545-4.665 2.196-6.08 4.953v0c-1.417 2.764-1.557 5.409-0.419 7.936 1.141 2.52 3.424 4.659 6.848 6.414v0c3.418 1.753 6.454 2.342 9.107 1.768 2.657-0.58 4.694-2.252 6.112-5.016z" fill="#000000" data-fill-palette-color="accent"></path><path d="M6.766 128.432c0-9.752 7.905-17.657 17.658-17.658 9.752 0 17.657 7.905 17.657 17.658 0 9.752-7.905 17.657-17.657 17.657-9.752 0-17.657-7.905-17.658-17.657z" fill="#000000" data-fill-palette-color="accent"></path><path d="M203.631 128.432c0-9.752 7.905-17.657 17.657-17.658 9.752 0 17.657 7.905 17.658 17.658 0 9.752-7.905 17.657-17.658 17.657-9.752 0-17.657-7.905-17.657-17.657z" fill="#000000" data-fill-palette-color="accent"></path></g><g id="text-1"></g></svg></g></svg></g><g></g></svg></g><defs></defs></svg><rect width="195.93951507003274" height="247.2" fill="none" stroke="none" visibility="hidden"></rect></g></svg></g></svg>